<svg width="50" height="51" viewBox="0 0 50 51" fill="none" xmlns="http://www.w3.org/2000/svg">
<g clip-path="url(#clip0_444_787)">
<path d="M25 50.7273C38.8071 50.7273 50 39.5344 50 25.7273C50 11.9201 38.8071 0.727264 25 0.727264C11.1929 0.727264 0 11.9201 0 25.7273C0 39.5344 11.1929 50.7273 25 50.7273Z" fill="#D80027"/>
<path d="M39.7743 21.2439H28.4877L25 10.5099L21.5124 21.2439H10.2258L19.3568 27.8779L15.869 38.6121L25 31.9781L34.1311 38.6122L30.6433 27.878L39.7743 21.2439ZM21.9124 27.0475L23.0917 23.4177H26.9083L28.0877 27.0475V27.0476L25 29.2908L21.9125 27.0476L21.9124 27.0475ZM26.202 21.2439H23.7982L25 17.5447L26.202 21.2439ZM29.9369 25.704L29.194 23.4178H33.0835L29.9369 25.704ZM20.806 23.4178L20.0631 25.704L16.9164 23.4178H20.806ZM20.0041 32.9207L21.206 29.2216L23.1508 30.6345L20.0041 32.9207ZM26.8493 30.6346L28.7941 29.2217L29.996 32.9208L26.8493 30.6346Z" fill="#FFDA44"/>
</g>
<defs>
<clipPath id="clip0_444_787">
<rect width="50" height="50" fill="white" transform="translate(0 0.727264)"/>
</clipPath>
</defs>
</svg>
