<svg width="50" height="51" viewBox="0 0 50 51" fill="none" xmlns="http://www.w3.org/2000/svg">
<g clip-path="url(#clip0_407_207)">
<path d="M25 50.8181C38.8071 50.8181 50 39.6252 50 25.8181C50 12.011 38.8071 0.818115 25 0.818115C11.1929 0.818115 0 12.011 0 25.8181C0 39.6252 11.1929 50.8181 25 50.8181Z" fill="#F0F0F0"/>
<path d="M25 0.818115C11.193 0.818115 0 12.0111 0 25.8181C0 28.8761 0.550098 31.8055 1.55498 34.5137H48.4451C49.45 31.8055 50 28.8761 50 25.8181C50 12.0111 38.807 0.818115 25 0.818115Z" fill="#0052B4"/>
<path d="M25 0.818115C14.2509 0.818115 5.08732 7.60249 1.55499 17.1225H48.4451C44.9127 7.60249 35.7491 0.818115 25 0.818115V0.818115Z" fill="#D80027"/>
<path d="M6.46466 14.9486V27.4199C6.46466 34.514 15.7323 36.6878 15.7323 36.6878C15.7323 36.6878 24.9999 34.514 24.9999 27.4199V14.9486H6.46466Z" fill="#D80027"/>
<path d="M10.2975 17.1225H21.1671V12.7746L18.9932 13.8615L15.7323 10.6007L12.4714 13.8615L10.2975 12.7746V17.1225Z" fill="#FFDA44"/>
<path d="M22.8261 29.1563L15.7609 22.0911L8.69562 29.1563L11.0014 31.4621L15.7609 26.7026L20.5203 31.4621L22.8261 29.1563Z" fill="#FFDA44"/>
<path d="M22.8261 22.5573H19.5296C19.715 22.2374 19.8228 21.8668 19.8228 21.4706C19.8228 20.2698 18.8494 19.2966 17.6488 19.2966C16.8193 19.2966 16.0988 19.7613 15.7323 20.4444C15.3658 19.7614 14.6454 19.2966 13.8158 19.2966C12.6152 19.2966 11.6419 20.2698 11.6419 21.4706C11.6419 21.8668 11.7497 22.2375 11.9351 22.5573H8.69562C8.69562 23.758 9.74142 24.7312 10.9419 24.7312H10.8695C10.8695 25.9319 11.8428 26.9051 13.0435 26.9051C13.0435 27.9682 13.8069 28.8514 14.8152 29.0405L13.1024 32.9079C13.9233 33.2416 14.8203 33.4269 15.761 33.4269C16.7016 33.4269 17.5986 33.2416 18.4195 32.9079L16.7067 29.0405C17.715 28.8516 18.4784 27.9683 18.4784 26.9051C19.6791 26.9051 20.6524 25.9319 20.6524 24.7312H20.58C21.7804 24.7312 22.8261 23.7579 22.8261 22.5573V22.5573Z" fill="#F0F0F0"/>
</g>
<defs>
<clipPath id="clip0_407_207">
<rect width="50" height="50" fill="white" transform="translate(0 0.818115)"/>
</clipPath>
</defs>
</svg>
