<svg width="50" height="51" viewBox="0 0 50 51" fill="none" xmlns="http://www.w3.org/2000/svg">
<g clip-path="url(#clip0_444_782)">
<path d="M0 25.7273C0 11.9202 11.193 0.727264 25 0.727264C38.807 0.727264 50 11.9202 50 25.7273L25 27.9012L0 25.7273Z" fill="#FFDA44"/>
<path d="M3.34534 38.2273C7.66809 45.6995 15.7466 50.7273 25 50.7273C34.2534 50.7273 42.332 45.6995 46.6547 38.2273L25 36.5968L3.34534 38.2273Z" fill="#D80027"/>
<path d="M46.6547 38.2273C48.7818 34.5501 50 30.2811 50 25.7273H0C0 30.2811 1.21816 34.5501 3.34531 38.2273H46.6547Z" fill="#0052B4"/>
<path d="M25 34.4229C29.8025 34.4229 33.6957 30.5297 33.6957 25.7273C33.6957 20.9248 29.8025 17.0317 25 17.0317C20.1976 17.0317 16.3044 20.9248 16.3044 25.7273C16.3044 30.5297 20.1976 34.4229 25 34.4229Z" fill="#FFDA44"/>
<path d="M25 31.162C22.0032 31.162 19.5652 28.7239 19.5652 25.7273V22.4664C19.5652 19.4696 22.0033 17.0317 25 17.0317C27.9966 17.0317 30.4347 19.4697 30.4347 22.4664V25.7273C30.4347 28.724 27.9967 31.162 25 31.162Z" fill="#338AF3"/>
<path d="M33.6956 12.6838H27.1738C27.1738 11.4832 26.2005 10.5099 24.9999 10.5099C23.7993 10.5099 22.826 11.4832 22.826 12.6838H16.3042C16.3042 13.8845 17.35 14.8577 18.5505 14.8577H18.4781C18.4781 16.0584 19.4514 17.0317 20.6521 17.0317C20.6521 18.2323 21.6253 19.2056 22.826 19.2056H27.1738C28.3745 19.2056 29.3478 18.2323 29.3478 17.0317C30.5484 17.0317 31.5217 16.0584 31.5217 14.8577H31.4493C32.6499 14.8577 33.6956 13.8844 33.6956 12.6838V12.6838Z" fill="black"/>
</g>
<defs>
<clipPath id="clip0_444_782">
<rect width="50" height="50" fill="white" transform="translate(0 0.727264)"/>
</clipPath>
</defs>
</svg>
