<svg width="50" height="51" viewBox="0 0 50 51" fill="none" xmlns="http://www.w3.org/2000/svg">
<g clip-path="url(#clip0_444_787)">
<path d="M25 50.7273C38.8071 50.7273 50 39.5344 50 25.7273C50 11.9201 38.8071 0.727264 25 0.727264C11.1929 0.727264 0 11.9201 0 25.7273C0 39.5344 11.1929 50.7273 25 50.7273Z" fill="#F0F0F0"/>
<path d="M50 25.7273C50 15.8157 44.2319 7.25168 35.8695 3.20793V48.2465C44.2319 44.2029 50 35.6388 50 25.7273V25.7273Z" fill="#D80027"/>
<path d="M0 25.7273C0 35.6388 5.76807 44.2029 14.1305 48.2466V3.20793C5.76807 7.25168 0 15.8157 0 25.7273Z" fill="#D80027"/>
<path d="M29.3479 28.9881L33.6957 26.8142L31.5218 25.7273V23.5533L27.174 25.7273L29.3479 21.3794H27.174L25 18.1186L22.8261 21.3794H20.6522L22.8261 25.7273L18.4783 23.5533V25.7273L16.3044 26.8142L20.6522 28.9881L19.5653 31.162H23.9131V34.4229H26.087V31.162H30.4348L29.3479 28.9881Z" fill="#D80027"/>
</g>
<defs>
<clipPath id="clip0_444_787">
<rect width="50" height="50" fill="white" transform="translate(0 0.727264)"/>
</clipPath>
</defs>
</svg>
