<svg width="50" height="51" viewBox="0 0 50 51" fill="none" xmlns="http://www.w3.org/2000/svg">
<g clip-path="url(#clip0_444_787)">
<path d="M50 25.7273C50 22.6693 49.4499 19.7399 48.445 17.0317L25 15.9446L1.55498 17.0316C0.550098 19.7399 0 22.6693 0 25.7273C0 28.7853 0.550098 31.7147 1.55498 34.4229L25 35.5099L48.445 34.423C49.4499 31.7147 50 28.7853 50 25.7273Z" fill="#F0F0F0"/>
<path d="M25 50.7273C35.7491 50.7273 44.9126 43.9429 48.445 34.4229H1.55493C5.08726 43.9429 14.2508 50.7273 25 50.7273Z" fill="#0052B4"/>
<path d="M1.55493 17.0317H48.4451C44.9126 7.51164 35.7491 0.727264 25 0.727264C14.2508 0.727264 5.08726 7.51164 1.55493 17.0317V17.0317Z" fill="#D80027"/>
<path d="M31.5218 18.1187H27.174L27.8987 12.6838L30.7971 10.5099L33.6956 12.6838V17.0317L31.5218 18.1187Z" fill="#338AF3"/>
<path d="M18.4783 18.1187H22.8261L22.1014 12.6838L19.2029 10.5099L16.3044 12.6838V17.0317L18.4783 18.1187Z" fill="#338AF3"/>
<path d="M27.8986 18.1187H22.1013V12.6838L25 10.5099L27.8986 12.6838V18.1187Z" fill="#0052B4"/>
<path d="M16.3044 17.0318V28.9882C16.3044 31.8352 17.6796 34.367 19.8007 35.9542L21.3225 35.5735L23.2428 37.5053C23.8107 37.6223 24.3983 37.6839 25.0001 37.6839C25.5988 37.6839 26.1834 37.6231 26.7483 37.5072L28.9404 35.682L30.1994 35.9507C32.3196 34.3636 33.6958 31.8344 33.6958 28.9882V17.0318H16.3044Z" fill="#F0F0F0"/>
<path d="M16.3044 17.0317H19.7827V20.5099H16.3044V17.0317Z" fill="#D80027"/>
<path d="M23.2609 17.0317H26.7391V20.5099H23.2609V17.0317Z" fill="#D80027"/>
<path d="M30.2174 17.0317H33.6956V20.5099H30.2174V17.0317Z" fill="#D80027"/>
<path d="M19.7827 20.5099H23.2609V23.9881H19.7827V20.5099Z" fill="#D80027"/>
<path d="M26.7393 20.5099H30.2175V23.9881H26.7393V20.5099Z" fill="#D80027"/>
<path d="M16.3044 23.987H19.7827V27.4653H16.3044V23.987Z" fill="#D80027"/>
<path d="M19.7827 27.4654H23.2609V30.9436H19.7827V27.4654Z" fill="#D80027"/>
<path d="M23.2609 23.987H26.7391V27.4653H23.2609V23.987Z" fill="#D80027"/>
<path d="M30.2174 23.987H33.6956V27.4653H30.2174V23.987Z" fill="#D80027"/>
<path d="M26.7393 27.4654H30.2175V30.9436H26.7393V27.4654Z" fill="#D80027"/>
<path d="M23.2609 30.9436H26.7391V34.4218H23.2609V30.9436Z" fill="#D80027"/>
<path d="M19.7826 30.9439H16.5288C16.8272 32.2368 17.414 33.42 18.2185 34.4221H19.7826V30.9439Z" fill="#D80027"/>
<path d="M30.2174 34.4222H31.7815C32.5862 33.42 33.1727 32.2368 33.4711 30.944H30.2174V34.4222Z" fill="#D80027"/>
<path d="M19.7827 34.4222V35.9399C20.7943 36.7011 21.9766 37.2469 23.2609 37.5088V34.4222H19.7827Z" fill="#D80027"/>
<path d="M26.7393 34.4222V37.5088C28.0237 37.2471 29.2059 36.7011 30.2175 35.9399V34.4222H26.7393Z" fill="#D80027"/>
</g>
<defs>
<clipPath id="clip0_444_787">
<rect width="50" height="50" fill="white" transform="translate(0 0.727264)"/>
</clipPath>
</defs>
</svg>
