<svg width="50" height="51" viewBox="0 0 50 51" fill="none" xmlns="http://www.w3.org/2000/svg">
<g clip-path="url(#clip0_444_787)">
<path d="M25 50.7273C38.8071 50.7273 50 39.5344 50 25.7273C50 11.9201 38.8071 0.727264 25 0.727264C11.1929 0.727264 0 11.9201 0 25.7273C0 39.5344 11.1929 50.7273 25 50.7273Z" fill="#F0F0F0"/>
<path d="M49.7884 22.4664H28.261H28.2609V0.938886C27.1935 0.799921 26.1052 0.727264 25 0.727264C23.8948 0.727264 22.8065 0.799921 21.7392 0.938886V22.4662V22.4663H0.211621C0.0726563 23.5338 0 24.6219 0 25.7273C0 26.8326 0.0726563 27.9207 0.211621 28.9881H21.739H21.7391V50.5156C22.8065 50.6546 23.8948 50.7273 25 50.7273C26.1052 50.7273 27.1935 50.6547 28.2608 50.5156V28.9883V28.9882H49.7884C49.9273 27.9207 50 26.8326 50 25.7273C50 24.6219 49.9273 23.5338 49.7884 22.4664V22.4664Z" fill="#D80027"/>
</g>
<defs>
<clipPath id="clip0_444_787">
<rect width="50" height="50" fill="white" transform="translate(0 0.727264)"/>
</clipPath>
</defs>
</svg>
