<svg width="50" height="51" viewBox="0 0 50 51" fill="none" xmlns="http://www.w3.org/2000/svg">
<g clip-path="url(#clip0_175_390)">
<path d="M25 50.4551C38.8071 50.4551 50 39.2622 50 25.4551C50 11.648 38.8071 0.455078 25 0.455078C11.1929 0.455078 0 11.648 0 25.4551C0 39.2622 11.1929 50.4551 25 50.4551Z" fill="#F0F0F0"/>
<path d="M33.6959 25.4554C33.6959 27.6293 29.8027 33.0641 25.0003 33.0641C20.1979 33.0641 16.3047 27.6293 16.3047 25.4554C16.3047 20.6528 20.1979 16.7598 25.0003 16.7598C29.8027 16.7598 33.6959 20.6528 33.6959 25.4554Z" fill="#D80027"/>
<path d="M33.6959 25.4551C33.6959 30.2576 29.8027 34.1507 25.0003 34.1507C20.1979 34.1507 16.3047 30.2576 16.3047 25.4551" fill="#0052B4"/>
<path d="M34.2158 33.1416L36.5212 30.8362L38.0582 32.3732L35.7528 34.6786L34.2158 33.1416Z" fill="black"/>
<path d="M30.373 36.9844L32.6785 34.679L34.2154 36.2159L31.91 38.5213L30.373 36.9844Z" fill="black"/>
<path d="M38.8271 37.752L41.1326 35.4465L42.6695 36.9835L40.3641 39.2889L38.8271 37.752Z" fill="black"/>
<path d="M34.9844 41.5947L37.2898 39.2893L38.8268 40.8263L36.5213 43.1317L34.9844 41.5947Z" fill="black"/>
<path d="M36.5215 35.4473L38.8269 33.1419L40.3639 34.6788L38.0584 36.9842L36.5215 35.4473Z" fill="black"/>
<path d="M32.6797 39.2891L34.9851 36.9836L36.5221 38.5206L34.2167 40.826L32.6797 39.2891Z" fill="black"/>
<path d="M38.8379 17.7734L32.6901 11.6256L34.2271 10.0887L40.3749 16.2365L38.8379 17.7734Z" fill="black"/>
<path d="M32.6885 16.2363L30.3831 13.9309L31.92 12.394L34.2254 14.6994L32.6885 16.2363Z" fill="black"/>
<path d="M36.5312 20.0801L34.2258 17.7747L35.7627 16.2378L38.0681 18.5432L36.5312 20.0801Z" fill="black"/>
<path d="M37.2988 11.625L34.9934 9.31959L36.5304 7.78262L38.8358 10.088L37.2988 11.625Z" fill="black"/>
<path d="M41.1436 15.4688L38.8381 13.1633L40.3751 11.6264L42.6805 13.9318L41.1436 15.4688Z" fill="black"/>
<path d="M8.8623 35.4424L15.0101 41.5902L13.4731 43.1271L7.32534 36.9793L8.8623 35.4424Z" fill="black"/>
<path d="M15.0098 36.9785L17.3152 39.2839L15.7783 40.8208L13.4729 38.5154L15.0098 36.9785Z" fill="black"/>
<path d="M11.168 33.1367L13.4734 35.4421L11.9364 36.9791L9.631 34.6737L11.168 33.1367Z" fill="black"/>
<path d="M13.4736 30.8311L19.6214 36.9788L18.0845 38.5158L11.9367 32.368L13.4736 30.8311Z" fill="black"/>
<path d="M15.0098 9.31445L8.86197 15.4622L7.32501 13.9253L13.4728 7.77749L15.0098 9.31445Z" fill="black"/>
<path d="M17.3154 11.6201L11.1676 17.7679L9.63067 16.2309L15.7785 10.0832L17.3154 11.6201Z" fill="black"/>
<path d="M19.623 13.9268L13.4753 20.0746L11.9384 18.5377L18.0861 12.3899L19.623 13.9268Z" fill="black"/>
</g>
<defs>
<clipPath id="clip0_175_390">
<rect width="50" height="50" fill="white" transform="translate(0 0.455078)"/>
</clipPath>
</defs>
</svg>
