<svg width="50" height="51" viewBox="0 0 50 51" fill="none" xmlns="http://www.w3.org/2000/svg">
<g clip-path="url(#clip0_444_787)">
<path d="M25 50.7273C38.8071 50.7273 50 39.5344 50 25.7273C50 11.9201 38.8071 0.727264 25 0.727264C11.1929 0.727264 0 11.9201 0 25.7273C0 39.5344 11.1929 50.7273 25 50.7273Z" fill="#F0F0F0"/>
<path d="M50 25.7273C50 11.9202 38.807 0.727264 25 0.727264C20.1094 0.727264 15.5474 2.13303 11.6941 4.56037L17.1739 6.88859L9.78259 10.029L17.1739 13.1694L9.78259 16.3096L17.1739 19.4497L9.78259 22.5895L17.1739 25.729L9.78259 28.8693L17.1739 32.0093L9.78259 35.149L17.1739 38.2891L9.78259 41.4293L17.1739 44.5691L11.6966 46.896C15.5494 49.3222 20.1103 50.7273 25 50.7273C38.807 50.7273 50 39.5343 50 25.7273Z" fill="#751A46"/>
</g>
<defs>
<clipPath id="clip0_444_787">
<rect width="50" height="50" fill="white" transform="translate(0 0.727264)"/>
</clipPath>
</defs>
</svg>
