<svg width="50" height="51" viewBox="0 0 50 51" fill="none" xmlns="http://www.w3.org/2000/svg">
<g clip-path="url(#clip0_444_787)">
<path d="M25 50.7273C38.8071 50.7273 50 39.5344 50 25.7273C50 11.9201 38.8071 0.727264 25 0.727264C11.1929 0.727264 0 11.9201 0 25.7273C0 39.5344 11.1929 50.7273 25 50.7273Z" fill="#F0F0F0"/>
<path d="M48.445 17.0317H1.55498C0.550098 19.74 0 22.6693 0 25.7273C0 28.7853 0.550098 31.7146 1.55498 34.4229H48.4451C49.45 31.7146 50 28.7853 50 25.7273C50 22.6693 49.45 19.74 48.445 17.0317Z" fill="#D80027"/>
<path d="M25 0.727264C17.4227 0.727264 10.6334 4.09875 6.04871 9.42287H43.9511C39.3666 4.09875 32.5772 0.727264 25 0.727264V0.727264Z" fill="#0052B4"/>
<path d="M43.9512 42.0317H6.04871C10.6334 47.3558 17.4227 50.7273 25 50.7273C32.5772 50.7273 39.3666 47.3558 43.9512 42.0317Z" fill="#0052B4"/>
</g>
<defs>
<clipPath id="clip0_444_787">
<rect width="50" height="50" fill="white" transform="translate(0 0.727264)"/>
</clipPath>
</defs>
</svg>
