<svg width="50" height="51" viewBox="0 0 50 51" fill="none" xmlns="http://www.w3.org/2000/svg">
<g clip-path="url(#clip0_444_787)">
<path d="M25 50.7273C38.8071 50.7273 50 39.5344 50 25.7273C50 11.9201 38.8071 0.727264 25 0.727264C11.1929 0.727264 0 11.9201 0 25.7273C0 39.5344 11.1929 50.7273 25 50.7273Z" fill="#F0F0F0"/>
<path d="M33.1198 19.2055H29.8489C29.876 19.565 29.8913 19.9276 29.8913 20.2924C29.8913 22.7108 29.2868 25.0548 28.233 26.7234C27.9079 27.238 27.3616 27.9648 26.6304 28.455V19.2054H23.3695V28.455C22.6384 27.9648 22.092 27.2381 21.7669 26.7234C20.713 25.0548 20.1086 22.7108 20.1086 20.2924C20.1086 19.9276 20.124 19.5649 20.151 19.2055H16.8801C16.8591 19.5632 16.8477 19.9255 16.8477 20.2924C16.8477 26.9971 20.4285 32.2489 24.9998 32.2489C29.5711 32.2489 33.152 26.9971 33.152 20.2924C33.1522 19.9255 33.1407 19.5632 33.1198 19.2055V19.2055Z" fill="#D80027"/>
<path d="M10.3261 12.6838H13.587V14.8577H16.8478V12.6838H20.1086V14.8577H23.3695V12.6838H26.6303V14.8577H29.8912V12.6838H33.152V14.8577H36.4128V12.6838H39.6737V14.8577H47.5191C43.4756 6.49533 34.9115 0.727264 25 0.727264C15.0886 0.727264 6.52446 6.49533 2.48071 14.8577H10.3261V12.6838Z" fill="#6DA544"/>
<path d="M39.674 36.5968V38.7707H36.4131V36.5968H33.1523V38.7707H29.8915V36.5968H26.6306V38.7707H23.3698V36.5968H20.1089V38.7707H16.8481V36.5968H13.587V38.7707H10.3261V36.5968H2.48071C6.52446 44.9592 15.0885 50.7273 25 50.7273C34.9116 50.7273 43.4756 44.9592 47.5194 36.5968H39.674Z" fill="#D80027"/>
</g>
<defs>
<clipPath id="clip0_444_787">
<rect width="50" height="50" fill="white" transform="translate(0 0.727264)"/>
</clipPath>
</defs>
</svg>
