<svg width="50" height="51" viewBox="0 0 50 51" fill="none" xmlns="http://www.w3.org/2000/svg">
<g clip-path="url(#clip0_444_787)">
<path d="M33.6956 2.28224C30.9873 1.27736 28.058 0.727264 25 0.727264C21.942 0.727264 19.0127 1.27736 16.3044 2.28224L14.1305 25.7273L16.3044 49.1723C19.0127 50.1773 21.942 50.7273 25 50.7273C28.058 50.7273 30.9873 50.1773 33.6956 49.1723L35.8696 25.7273L33.6956 2.28224Z" fill="#FFDA44"/>
<path d="M49.9999 25.7273C49.9999 14.9782 43.2156 5.81458 33.6956 2.28235V49.1725C43.2156 45.64 49.9999 36.4765 49.9999 25.7273V25.7273Z" fill="#D80027"/>
<path d="M0 25.7273C0 36.4765 6.78437 45.64 16.3044 49.1724V2.28235C6.78437 5.81458 0 14.9782 0 25.7273V25.7273Z" fill="black"/>
</g>
<defs>
<clipPath id="clip0_444_787">
<rect width="50" height="50" fill="white" transform="translate(0 0.727264)"/>
</clipPath>
</defs>
</svg>
