<svg width="50" height="51" viewBox="0 0 50 51" fill="none" xmlns="http://www.w3.org/2000/svg">
<g clip-path="url(#clip0_444_787)">
<path d="M25 50.7273C38.8071 50.7273 50 39.5344 50 25.7273C50 11.9201 38.8071 0.727264 25 0.727264C11.1929 0.727264 0 11.9201 0 25.7273C0 39.5344 11.1929 50.7273 25 50.7273Z" fill="#F0F0F0"/>
<path d="M50 25.7273C50 39.5343 38.807 50.7273 25 50.7273C11.193 50.7273 0 39.5343 0 25.7273" fill="#496E2D"/>
<path d="M43.263 18.124C42.369 15.5886 39.9533 13.7708 37.112 13.7708H31.5217C27.9199 13.7708 25 16.6907 25 20.2926C25 21.4693 25.3132 22.6003 25.8584 23.5534C23.7826 23.5364 21.8614 23.5678 20.6521 23.5534C20.6521 21.0382 20.6521 17.8341 20.6521 17.1637L20.9089 16.9068C22.0619 15.7539 21.6774 13.8324 21.6774 13.8324C21.6774 13.8324 19.7561 13.4482 18.6032 14.6011L17.2595 15.9447H15.7608C12.459 15.9447 9.78257 18.6213 9.78257 21.923H14.1304V26.8143C14.1304 27.5297 14.2747 28.2112 14.5353 28.8319L13.0434 30.0751H10.8695V27.9012H8.69556V32.249H18.4782V36.5969H16.3042V38.7708H20.6521V34.423L22.6448 32.0317H27.355L29.3477 34.423V36.5969H27.1738V38.7708H35.8694V26.8142C35.8694 25.0133 37.3293 23.5533 39.1302 23.5533C39.1765 23.5533 39.2224 23.555 39.2683 23.5568C39.1783 23.2084 39.1302 22.8431 39.1302 22.4664C39.1304 20.1374 40.9618 18.2362 43.263 18.124V18.124ZM31.5217 36.5968V32.0316H31.7029L33.6956 34.4229V36.5968H31.5217Z" fill="#D80027"/>
</g>
<defs>
<clipPath id="clip0_444_787">
<rect width="50" height="50" fill="white" transform="translate(0 0.727264)"/>
</clipPath>
</defs>
</svg>
