<svg width="50" height="51" viewBox="0 0 50 51" fill="none" xmlns="http://www.w3.org/2000/svg">
<g clip-path="url(#clip0_444_787)">
<path d="M1.55493 34.4229C5.08726 43.9428 14.2508 50.7273 25 50.7273C35.7491 50.7273 44.9126 43.9428 48.445 34.4229L25 32.249L1.55493 34.4229Z" fill="#FFDA44"/>
<path d="M25 0.727264C14.2508 0.727264 5.08726 7.51164 1.55493 17.0317L25 19.2055L48.445 17.0316C44.9126 7.51164 35.7491 0.727264 25 0.727264Z" fill="black"/>
<path d="M1.55498 17.0317C0.550098 19.74 0 22.6693 0 25.7273C0 28.7853 0.550098 31.7146 1.55498 34.4229H48.4451C49.45 31.7146 50 28.7853 50 25.7273C50 22.6693 49.45 19.74 48.445 17.0317H1.55498Z" fill="#D80027"/>
</g>
<defs>
<clipPath id="clip0_444_787">
<rect width="50" height="50" fill="white" transform="translate(0 0.727264)"/>
</clipPath>
</defs>
</svg>
